<svg xmlns="http://www.w3.org/2000/svg" viewBox="0 0 120 120" fill="none" role="img" aria-label="Neeh">
  <path d="M 41.20 76.69 C 42.97 79.27 45.50 81.85 45.50 84.00 C 45.50 86.67 43.57 88.30 41.20 88.30 C 38.84 88.30 36.90 86.67 36.90 84.00 C 36.90 81.85 38.23 79.27 41.20 76.69 Z" fill="#2A2018"/>
  <path d="M 43.80 81.40 L 43.78 81.02 L 43.76 80.57 L 43.74 80.08 L 43.71 79.53 L 43.68 78.94 L 43.65 78.30 L 43.62 77.63 L 43.58 76.92 L 43.55 76.19 L 43.51 75.43 L 43.47 74.65 L 43.44 73.85 L 43.40 73.04 L 43.36 72.23 L 43.32 71.41 L 43.29 70.59 L 43.25 69.77 L 43.22 68.96 L 43.18 68.17 L 43.15 67.40 L 43.12 66.64 L 43.10 65.91 L 43.07 65.20 L 43.05 64.48 L 43.03 63.75 L 43.01 63.02 L 43.00 62.30 L 42.98 61.56 L 42.96 60.83 L 42.95 60.10 L 42.93 59.36 L 42.92 58.63 L 42.91 57.89 L 42.89 57.15 L 42.88 56.42 L 42.86 55.69 L 42.85 54.96 L 42.83 54.23 L 42.81 53.50 L 42.79 52.78 L 42.77 52.06 L 42.75 51.34 L 42.73 50.63 L 42.70 49.92 L 42.67 49.21 L 42.64 48.47 L 42.60 47.71 L 42.57 46.94 L 42.53 46.15 L 42.49 45.36 L 42.45 44.57 L 42.40 43.78 L 42.36 42.99 L 42.32 42.21 L 42.27 41.44 L 42.23 40.69 L 42.19 39.95 L 42.15 39.25 L 42.11 38.57 L 42.07 37.92 L 42.03 37.31 L 42.00 36.74 L 41.97 36.22 L 41.94 35.74 L 41.92 35.31 L 41.90 34.94 L 37.50 35.06 L 37.50 35.43 L 37.50 35.85 L 37.50 36.33 L 37.49 36.86 L 37.49 37.43 L 37.48 38.04 L 37.48 38.69 L 37.48 39.37 L 37.47 40.08 L 37.47 40.81 L 37.46 41.56 L 37.46 42.33 L 37.46 43.12 L 37.46 43.91 L 37.46 44.70 L 37.46 45.50 L 37.46 46.29 L 37.46 47.08 L 37.47 47.85 L 37.48 48.62 L 37.49 49.36 L 37.50 50.08 L 37.52 50.78 L 37.53 51.50 L 37.55 52.21 L 37.58 52.93 L 37.60 53.66 L 37.62 54.38 L 37.65 55.11 L 37.68 55.84 L 37.71 56.58 L 37.74 57.31 L 37.77 58.05 L 37.80 58.78 L 37.83 59.52 L 37.87 60.26 L 37.90 60.99 L 37.93 61.73 L 37.96 62.46 L 37.99 63.19 L 38.02 63.92 L 38.05 64.65 L 38.08 65.37 L 38.10 66.09 L 38.13 66.82 L 38.15 67.58 L 38.18 68.36 L 38.21 69.15 L 38.23 69.96 L 38.26 70.78 L 38.29 71.60 L 38.31 72.42 L 38.34 73.24 L 38.36 74.05 L 38.39 74.85 L 38.41 75.63 L 38.44 76.39 L 38.46 77.13 L 38.48 77.83 L 38.50 78.51 L 38.52 79.14 L 38.54 79.74 L 38.56 80.28 L 38.58 80.78 L 38.59 81.22 L 38.60 81.60 Z" fill="#2A2018"/>
  <path d="M 38.12 35.33 L 38.28 35.65 L 38.47 36.03 L 38.67 36.45 L 38.90 36.92 L 39.15 37.43 L 39.42 37.98 L 39.70 38.56 L 40.00 39.17 L 40.31 39.80 L 40.63 40.46 L 40.96 41.13 L 41.30 41.82 L 41.65 42.52 L 42.01 43.23 L 42.37 43.94 L 42.73 44.65 L 43.09 45.35 L 43.46 46.05 L 43.82 46.74 L 44.19 47.41 L 44.55 48.07 L 44.90 48.70 L 45.25 49.31 L 45.59 49.93 L 45.94 50.55 L 46.29 51.17 L 46.64 51.78 L 46.99 52.40 L 47.34 53.02 L 47.70 53.64 L 48.06 54.26 L 48.42 54.87 L 48.78 55.49 L 49.15 56.10 L 49.52 56.70 L 49.90 57.31 L 50.28 57.91 L 50.67 58.51 L 51.06 59.10 L 51.46 59.69 L 51.86 60.27 L 52.27 60.84 L 52.69 61.41 L 53.11 61.98 L 53.55 62.54 L 54.00 63.10 L 54.45 63.66 L 54.91 64.21 L 55.38 64.75 L 55.85 65.29 L 56.33 65.83 L 56.81 66.36 L 57.30 66.89 L 57.79 67.41 L 58.28 67.93 L 58.78 68.45 L 59.28 68.96 L 59.78 69.47 L 60.29 69.98 L 60.79 70.48 L 61.30 70.98 L 61.81 71.48 L 62.32 71.98 L 62.83 72.47 L 63.34 72.96 L 63.85 73.46 L 64.38 73.96 L 64.93 74.48 L 65.51 75.01 L 66.11 75.55 L 66.72 76.10 L 67.34 76.65 L 67.97 77.20 L 68.60 77.75 L 69.23 78.30 L 69.86 78.84 L 70.48 79.37 L 71.09 79.89 L 71.69 80.40 L 72.26 80.88 L 72.82 81.35 L 73.35 81.80 L 73.85 82.22 L 74.31 82.61 L 74.74 82.98 L 75.13 83.31 L 75.48 83.60 L 75.77 83.86 L 80.23 80.14 L 80.03 79.81 L 79.80 79.41 L 79.55 78.97 L 79.27 78.48 L 78.96 77.95 L 78.64 77.39 L 78.30 76.79 L 77.94 76.16 L 77.56 75.50 L 77.17 74.82 L 76.77 74.13 L 76.36 73.42 L 75.94 72.71 L 75.52 71.99 L 75.09 71.26 L 74.66 70.55 L 74.23 69.84 L 73.80 69.14 L 73.38 68.45 L 72.96 67.79 L 72.55 67.15 L 72.15 66.54 L 71.75 65.94 L 71.35 65.35 L 70.94 64.75 L 70.54 64.16 L 70.13 63.56 L 69.73 62.97 L 69.32 62.39 L 68.90 61.80 L 68.49 61.22 L 68.08 60.64 L 67.66 60.07 L 67.24 59.50 L 66.81 58.93 L 66.39 58.37 L 65.96 57.81 L 65.53 57.25 L 65.10 56.70 L 64.66 56.16 L 64.22 55.62 L 63.78 55.08 L 63.34 54.55 L 62.89 54.02 L 62.43 53.50 L 61.96 52.98 L 61.48 52.46 L 61.00 51.95 L 60.51 51.45 L 60.02 50.95 L 59.53 50.45 L 59.03 49.96 L 58.53 49.48 L 58.03 48.99 L 57.53 48.51 L 57.03 48.04 L 56.52 47.56 L 56.02 47.09 L 55.52 46.61 L 55.02 46.14 L 54.53 45.67 L 54.03 45.20 L 53.54 44.73 L 53.06 44.25 L 52.58 43.78 L 52.10 43.30 L 51.62 42.82 L 51.13 42.32 L 50.62 41.79 L 50.10 41.26 L 49.57 40.71 L 49.03 40.16 L 48.49 39.60 L 47.95 39.03 L 47.41 38.47 L 46.88 37.92 L 46.35 37.37 L 45.84 36.83 L 45.33 36.30 L 44.85 35.79 L 44.38 35.30 L 43.94 34.84 L 43.52 34.40 L 43.13 33.98 L 42.76 33.60 L 42.43 33.25 L 42.14 32.94 L 41.88 32.67 Z" fill="#2A2018"/>
  <path d="M 81.30 82.13 L 81.30 81.73 L 81.31 81.27 L 81.32 80.76 L 81.33 80.19 L 81.34 79.57 L 81.35 78.91 L 81.37 78.21 L 81.38 77.48 L 81.39 76.72 L 81.41 75.93 L 81.42 75.12 L 81.44 74.29 L 81.45 73.45 L 81.47 72.61 L 81.48 71.76 L 81.50 70.91 L 81.52 70.07 L 81.53 69.24 L 81.55 68.42 L 81.57 67.63 L 81.58 66.85 L 81.60 66.11 L 81.61 65.38 L 81.63 64.64 L 81.65 63.90 L 81.67 63.16 L 81.69 62.41 L 81.72 61.66 L 81.74 60.91 L 81.76 60.16 L 81.78 59.41 L 81.81 58.66 L 81.83 57.92 L 81.85 57.17 L 81.87 56.43 L 81.89 55.70 L 81.91 54.97 L 81.93 54.25 L 81.95 53.53 L 81.96 52.82 L 81.97 52.13 L 81.98 51.44 L 81.99 50.76 L 82.00 50.09 L 82.00 49.43 L 82.00 48.75 L 82.00 48.08 L 82.00 47.40 L 82.00 46.73 L 81.99 46.05 L 81.98 45.38 L 81.97 44.72 L 81.96 44.06 L 81.95 43.42 L 81.94 42.78 L 81.93 42.16 L 81.92 41.55 L 81.90 40.96 L 81.89 40.39 L 81.88 39.84 L 81.86 39.31 L 81.85 38.80 L 81.84 38.33 L 81.82 37.88 L 81.81 37.46 L 81.80 37.07 L 81.79 36.72 L 81.77 36.40 L 81.76 36.11 L 81.74 35.84 L 81.73 35.61 L 81.71 35.39 L 81.70 35.20 L 81.68 35.03 L 81.66 34.88 L 81.65 34.74 L 81.63 34.62 L 81.61 34.52 L 81.60 34.42 L 81.58 34.33 L 81.57 34.25 L 81.55 34.17 L 81.54 34.10 L 81.53 34.02 L 81.52 33.94 L 81.51 33.86 L 81.50 33.77 L 81.50 33.69 L 79.70 33.51 L 79.68 33.58 L 79.66 33.63 L 79.63 33.69 L 79.61 33.74 L 79.57 33.80 L 79.54 33.87 L 79.50 33.95 L 79.46 34.03 L 79.42 34.13 L 79.38 34.23 L 79.33 34.35 L 79.29 34.48 L 79.24 34.63 L 79.19 34.80 L 79.14 34.98 L 79.10 35.19 L 79.05 35.41 L 79.00 35.66 L 78.95 35.93 L 78.90 36.24 L 78.85 36.57 L 78.80 36.93 L 78.75 37.32 L 78.70 37.74 L 78.65 38.19 L 78.60 38.67 L 78.54 39.18 L 78.49 39.71 L 78.43 40.26 L 78.38 40.83 L 78.32 41.42 L 78.26 42.02 L 78.21 42.64 L 78.15 43.28 L 78.09 43.92 L 78.04 44.58 L 77.98 45.24 L 77.92 45.90 L 77.87 46.57 L 77.81 47.24 L 77.76 47.92 L 77.70 48.58 L 77.65 49.25 L 77.60 49.91 L 77.55 50.57 L 77.50 51.25 L 77.46 51.93 L 77.41 52.63 L 77.36 53.33 L 77.32 54.05 L 77.27 54.77 L 77.23 55.49 L 77.18 56.23 L 77.14 56.97 L 77.10 57.71 L 77.05 58.45 L 77.01 59.20 L 76.96 59.95 L 76.92 60.70 L 76.88 61.45 L 76.83 62.20 L 76.79 62.94 L 76.74 63.69 L 76.70 64.43 L 76.65 65.16 L 76.60 65.89 L 76.55 66.63 L 76.50 67.40 L 76.45 68.20 L 76.39 69.01 L 76.34 69.84 L 76.28 70.68 L 76.22 71.53 L 76.16 72.38 L 76.11 73.22 L 76.05 74.06 L 75.99 74.88 L 75.93 75.69 L 75.88 76.48 L 75.83 77.24 L 75.77 77.97 L 75.73 78.67 L 75.68 79.33 L 75.64 79.94 L 75.60 80.51 L 75.56 81.02 L 75.53 81.48 L 75.50 81.87 Z" fill="#2A2018"/>
  <path d="M 81.51 33.87 L 81.53 33.78 L 81.54 33.68 L 81.56 33.58 L 81.58 33.46 L 81.60 33.33 L 81.62 33.20 L 81.64 33.06 L 81.66 32.92 L 81.68 32.77 L 81.70 32.61 L 81.73 32.45 L 81.75 32.29 L 81.78 32.13 L 81.81 31.97 L 81.83 31.82 L 81.86 31.66 L 81.89 31.51 L 81.92 31.36 L 81.95 31.22 L 81.99 31.08 L 82.02 30.96 L 82.05 30.84 L 82.09 30.72 L 82.12 30.61 L 82.16 30.49 L 82.21 30.37 L 82.25 30.26 L 82.30 30.14 L 82.34 30.03 L 82.39 29.92 L 82.44 29.81 L 82.49 29.70 L 82.54 29.59 L 82.60 29.48 L 82.65 29.37 L 82.70 29.26 L 82.76 29.16 L 82.81 29.06 L 82.87 28.96 L 82.92 28.86 L 82.98 28.76 L 83.03 28.67 L 83.09 28.57 L 83.14 28.48 L 83.19 28.40 L 83.24 28.31 L 83.30 28.22 L 83.36 28.14 L 83.42 28.06 L 83.48 27.97 L 83.55 27.89 L 83.61 27.81 L 83.67 27.73 L 83.74 27.65 L 83.80 27.58 L 83.86 27.51 L 83.92 27.44 L 83.98 27.37 L 84.04 27.30 L 84.10 27.24 L 84.15 27.18 L 84.20 27.13 L 84.24 27.08 L 84.28 27.03 L 84.32 26.99 L 84.35 26.95 L 84.25 26.85 L 84.21 26.88 L 84.17 26.91 L 84.12 26.95 L 84.07 26.99 L 84.01 27.03 L 83.94 27.07 L 83.88 27.12 L 83.80 27.17 L 83.73 27.22 L 83.65 27.28 L 83.57 27.33 L 83.49 27.39 L 83.41 27.46 L 83.33 27.52 L 83.24 27.59 L 83.16 27.66 L 83.07 27.73 L 82.99 27.80 L 82.90 27.88 L 82.82 27.96 L 82.74 28.04 L 82.66 28.12 L 82.59 28.20 L 82.51 28.28 L 82.43 28.36 L 82.35 28.45 L 82.28 28.54 L 82.20 28.63 L 82.12 28.72 L 82.04 28.82 L 81.96 28.91 L 81.87 29.01 L 81.79 29.11 L 81.71 29.22 L 81.63 29.32 L 81.55 29.43 L 81.47 29.54 L 81.40 29.65 L 81.32 29.76 L 81.24 29.88 L 81.17 30.00 L 81.09 30.12 L 81.02 30.24 L 80.95 30.36 L 80.88 30.49 L 80.81 30.63 L 80.73 30.78 L 80.66 30.93 L 80.59 31.08 L 80.53 31.24 L 80.46 31.40 L 80.39 31.56 L 80.32 31.72 L 80.26 31.88 L 80.20 32.03 L 80.14 32.19 L 80.08 32.34 L 80.02 32.48 L 79.97 32.62 L 79.92 32.76 L 79.87 32.88 L 79.82 33.00 L 79.78 33.10 L 79.75 33.19 L 79.72 33.27 L 79.69 33.33 Z" fill="#DDA02E"/>
  <circle cx="85.4" cy="25.7" r="1.05" fill="#DDA02E"/>
</svg>
